<svg width="287" height="247" viewBox="0 0 287 247" fill="none" xmlns="http://www.w3.org/2000/svg">
<path fill-rule="evenodd" clip-rule="evenodd" d="M233.724 155.076C233.752 154.983 233.78 154.892 233.809 154.799C234.206 153.475 234.545 152.123 234.824 150.741C235.869 145.583 236.021 140.291 235.461 134.928C235.048 130.979 234.25 126.991 233.144 123.004C231.82 118.238 230.059 113.474 227.975 108.785C226.404 105.252 224.649 101.762 222.748 98.352C222.053 97.2563 221.315 96.1705 220.59 95.0937C218.257 91.6336 215.624 88.2714 212.778 85.0477C208.226 79.8925 203.143 75.0946 197.754 70.7905C193.462 67.3627 188.97 64.2481 184.35 61.5021C177.648 57.5167 170.203 54.3964 162.226 52.0321C155.791 50.1251 148.945 48.7356 141.785 47.9464C135.801 47.2884 129.596 47.0497 123.303 47.3068C118.349 47.5091 113.34 48.0186 108.374 48.8804C103.542 50.2726 98.7119 52.0887 94.0232 54.2674C87.803 57.1568 81.8375 60.6879 76.4313 64.6581C71.9069 67.9787 67.7743 71.6052 64.152 75.3772C57.5713 82.1807 52.9179 90.3035 50.4098 98.7258C48.0961 106.373 47.3956 114.572 48.3756 122.76C49.2499 130.16 51.4854 137.545 54.8771 144.505C57.3517 149.586 60.4344 154.441 64.0036 158.928C65.0587 160.254 66.1543 161.547 67.2894 162.805C70.866 166.366 74.7009 169.718 78.7215 172.828C83.8298 176.781 89.2343 180.346 94.8179 183.478C101.5 187.226 108.435 190.354 115.528 192.816C116.585 193.182 117.644 193.535 118.708 193.872L119.022 193.971C122.722 195.132 126.464 196.114 130.25 196.913C134.318 197.772 138.311 198.392 142.238 198.799C148.424 199.438 154.442 199.545 160.3 199.197C167.657 198.759 174.769 197.604 181.562 195.855C185.81 194.76 189.931 193.431 193.885 191.89C195.115 191.41 196.33 190.91 197.525 190.39C198.777 189.846 200.01 189.28 201.221 188.692C205.324 186.701 209.186 184.464 212.733 181.994C217.593 178.61 221.856 174.789 225.335 170.537C228.995 166.063 231.781 161.109 233.542 155.654L233.724 155.076Z" fill="#F8FCFF"/>
<mask id="mask0" mask-type="alpha" maskUnits="userSpaceOnUse" x="0" y="0" width="287" height="247">
<path fill-rule="evenodd" clip-rule="evenodd" d="M233.724 155.076C233.752 154.983 233.78 154.892 233.809 154.799C234.206 153.475 234.545 152.123 234.824 150.741C235.869 145.583 236.021 140.291 235.461 134.928C235.048 130.979 234.25 126.991 233.144 123.004C231.82 118.238 230.059 113.474 227.975 108.785C226.404 105.252 224.649 101.762 222.748 98.352C222.053 97.2563 221.315 96.1705 220.59 95.0937C218.257 91.6336 215.624 88.2714 212.778 85.0477C208.226 79.8925 203.143 75.0946 197.754 70.7905C193.462 67.3627 188.97 64.2481 184.35 61.5021C177.648 57.5167 170.203 54.3964 162.226 52.0321C155.791 50.1251 148.945 48.7356 141.785 47.9464C135.801 47.2884 129.596 47.0497 123.303 47.3068C118.349 47.5091 113.34 48.0186 108.374 48.8804C103.542 50.2726 98.7119 52.0887 94.0232 54.2674C87.803 57.1568 81.8375 60.6879 76.4313 64.6581C71.9069 67.9787 67.7743 71.6052 64.152 75.3772C57.5713 82.1807 52.9179 90.3035 50.4098 98.7258C48.0961 106.373 47.3956 114.572 48.3756 122.76C49.2499 130.16 51.4854 137.545 54.8771 144.505C57.3517 149.586 60.4344 154.441 64.0036 158.928C65.0587 160.254 66.1543 161.547 67.2894 162.805C70.866 166.366 74.7009 169.718 78.7215 172.828C83.8298 176.781 89.2343 180.346 94.8179 183.478C101.5 187.226 108.435 190.354 115.528 192.816C116.585 193.182 117.644 193.535 118.708 193.872L119.022 193.971C122.722 195.132 126.464 196.114 130.25 196.913C134.318 197.772 138.311 198.392 142.238 198.799C148.424 199.438 154.442 199.545 160.3 199.197C167.657 198.759 174.769 197.604 181.562 195.855C185.81 194.76 189.931 193.431 193.885 191.89C195.115 191.41 196.33 190.91 197.525 190.39C198.777 189.846 200.01 189.28 201.221 188.692C205.324 186.701 209.186 184.464 212.733 181.994C217.593 178.61 221.856 174.789 225.335 170.537C228.995 166.063 231.781 161.109 233.542 155.654L233.724 155.076Z" fill="#008587"/>
</mask>
<g mask="url(#mask0)">
<path fill-rule="evenodd" clip-rule="evenodd" d="M159.961 190.578L137.088 205.772L135.017 144.798L166.415 145.167L159.961 190.578Z" fill="#FACBBD"/>
<path fill-rule="evenodd" clip-rule="evenodd" d="M168.831 202.851C158.942 208.131 147.367 208.751 137.002 204.556L134.836 203.68L132.856 183.887C132.781 180.696 135.21 178.026 138.766 177.939L161.684 177.381C164.221 177.318 166.775 179.868 166.851 183.059L168.831 202.851Z" fill="url(#paint0_linear)"/>
<path fill-rule="evenodd" clip-rule="evenodd" d="M136.342 181.346C136.486 184.103 138.839 186.222 141.596 186.077L148.742 185.703C151.5 185.558 153.618 183.205 153.474 180.448L149.95 113.206L132.818 114.104L136.342 181.346Z" fill="#F65B7D"/>
<mask id="mask1" mask-type="alpha" maskUnits="userSpaceOnUse" x="132" y="113" width="22" height="74">
<path fill-rule="evenodd" clip-rule="evenodd" d="M136.342 181.346C136.486 184.103 138.839 186.222 141.596 186.077L148.742 185.703C151.5 185.558 153.618 183.205 153.474 180.448L149.95 113.206L132.818 114.104L136.342 181.346Z" fill="white"/>
</mask>
<g mask="url(#mask1)">
<path fill-rule="evenodd" clip-rule="evenodd" d="M129.38 104.482L130.28 124.245L151.291 139.113L149.124 102.807L129.38 104.482Z" fill="#C64E73"/>
</g>
<path fill-rule="evenodd" clip-rule="evenodd" d="M165.706 146.639L157.976 151.617C157.09 152.187 155.906 151.938 155.332 151.06L141.628 130.137C138.937 126.026 140.118 120.531 144.266 117.859L146.09 116.684C146.974 116.114 148.159 116.363 148.733 117.241L166.269 144.016C166.845 144.894 166.593 146.068 165.706 146.639Z" fill="#FFCBBB"/>
<path fill-rule="evenodd" clip-rule="evenodd" d="M144.331 174.06L142.717 143.267C142.799 142.063 142.362 140.835 141.394 139.971L133.284 132.732C131.607 131.236 129 131.373 127.491 133.035L126.932 133.651C126.143 134.52 125.813 135.639 125.909 136.725C125.908 136.77 125.899 136.813 125.901 136.858L127.642 170.071C127.679 170.787 128.11 171.389 128.711 171.7C128.789 171.782 128.854 171.873 128.939 171.949L137.05 179.187C138.725 180.682 141.501 180.544 142.841 178.884C144.181 177.224 144.339 174.206 144.331 174.06Z" fill="#FACBBD"/>
</g>
<path fill-rule="evenodd" clip-rule="evenodd" d="M71.852 103.586C71.9221 110.911 77.9687 116.835 85.3025 116.769L190.083 115.791C197.418 115.722 203.352 109.684 203.282 102.359L202.795 50.9703C202.725 43.6454 196.677 37.7206 189.344 37.7897L84.5628 38.7667C77.2299 38.8347 71.2944 44.8729 71.3646 52.1976L71.852 103.586ZM198.282 102.407C198.326 106.969 194.611 110.748 190.037 110.791L85.2561 111.769C80.6814 111.81 76.8954 108.101 76.8517 103.539L76.3644 52.1499C76.3207 47.5888 80.0363 43.8089 84.6093 43.7665L189.39 42.7895C193.965 42.7464 197.752 46.4561 197.795 51.0179L198.282 102.407Z" fill="#CED5DC"/>
<path d="M190.037 110.791C194.611 110.748 198.326 106.969 198.282 102.407L197.795 51.0182C197.752 46.4565 193.965 42.7467 189.39 42.7898L84.6093 43.7668C80.0362 43.8092 76.3206 47.5891 76.3643 52.1502L76.8517 103.539C76.8954 108.101 80.6814 111.811 85.256 111.769L190.037 110.791Z" fill="url(#paint1_linear)"/>
<path fill-rule="evenodd" clip-rule="evenodd" d="M146.453 54.8069L115.315 87.2803C112.077 90.6563 112.193 96.0133 115.572 99.2455L115.845 99.5076C119.225 102.74 124.589 102.624 127.826 99.2483L158.963 66.7749C162.201 63.3999 162.084 58.0412 158.705 54.809L158.434 54.5485C156.675 52.8669 154.38 52.0914 152.126 52.2094C150.048 52.3184 148.006 53.1873 146.453 54.8069Z" fill="#F65B7D"/>
<path fill-rule="evenodd" clip-rule="evenodd" d="M125.553 55.9019L159.915 84.9425C163.488 87.9616 163.932 93.3013 160.91 96.869L160.665 97.1583C157.642 100.726 152.296 101.172 148.723 98.1527L114.362 69.112C110.789 66.0938 110.346 60.7523 113.368 57.1846L113.611 56.8972C115.184 55.041 117.386 54.0297 119.639 53.9116C121.718 53.8027 123.839 54.4534 125.553 55.9019Z" fill="url(#paint2_linear)"/>
<defs>
<linearGradient id="paint0_linear" x1="115.512" y1="186.673" x2="130.769" y2="217.601" gradientUnits="userSpaceOnUse">
<stop stop-color="#52CFD1"/>
<stop offset="0.979133" stop-color="#06B2B4"/>
<stop offset="1" stop-color="#00B0B2"/>
</linearGradient>
<linearGradient id="paint1_linear" x1="33.9941" y1="55.5131" x2="59.3612" y2="120.713" gradientUnits="userSpaceOnUse">
<stop stop-color="white"/>
<stop offset="1" stop-color="#EBF0F5"/>
</linearGradient>
<linearGradient id="paint2_linear" x1="134.754" y1="31.5218" x2="180.212" y2="78.95" gradientUnits="userSpaceOnUse">
<stop stop-color="#F291B0"/>
<stop offset="1" stop-color="#F65B7D"/>
</linearGradient>
</defs>
</svg>
